<?xml version="1.0" encoding="utf-8"?>
<!-- Generator: Adobe Illustrator 19.0.0, SVG Export Plug-In . SVG Version: 6.00 Build 0)  -->
<svg version="1.1" id="snapshot-88632" xmlns="http://www.w3.org/2000/svg" xmlns:xlink="http://www.w3.org/1999/xlink" x="0px"
	 y="0px" viewBox="-354 156 250 250" style="enable-background:new -354 156 250 250;" xml:space="preserve">
<style type="text/css">
	.st0{fill:none;}
	.st1{fill:#383838;}
	.st2{fill:url(#SVGID_1_);}
</style>
<pattern  x="-354" y="406" width="36.4" height="36.7" patternUnits="userSpaceOnUse" id="Motivo_nuevo_2" viewBox="0 -36.7 36.4 36.7" style="overflow:visible;">
	<g>
		<polygon class="st0" points="0,-36.7 36.4,-36.7 36.4,0 0,0 		"/>
		<g id="transformed-09173_44_" transform="translate(-121.5, -125) rotate(0, 121.5, 125)">
			<g id="original-09173_44_">
				<path d="M129.3,94.4l2.1,3.7l1-3.7l-1-3.7L129.3,94.4L129.3,94.4z M124,95l2.7,2.7l3.7,1l-2.1-3.7H124z M126.6,91.1l-2.7,2.7
					h4.3l2.1-3.7L126.6,91.1z M133.4,93.1l-0.7,1.3l0.7,1.3l-1.3,4.8l-4.9-1.3l-0.7-1.3l-1.5,0h0l-3.6-3.5l3.6-3.5l1.5,0l0.7-1.3
					l4.9-1.3L133.4,93.1L133.4,93.1z"/>
			</g>
		</g>
		<g id="transformed-09173_43_" transform="translate(-121.5, -125) rotate(0, 121.5, 125)">
			<g id="original-09173_43_">
				<path d="M141.5,94.4l2.1,3.7l1-3.7l-1-3.7L141.5,94.4L141.5,94.4z M136.2,95l2.7,2.7l3.7,1l-2.1-3.7H136.2z M138.9,91.1
					l-2.7,2.7h4.3l2.1-3.7L138.9,91.1z M145.7,93.1l-0.7,1.3l0.7,1.3l-1.3,4.8l-4.9-1.3l-0.7-1.3l-1.5,0h0l-3.6-3.5l3.6-3.5l1.5,0
					l0.7-1.3l4.9-1.3L145.7,93.1L145.7,93.1z"/>
			</g>
		</g>
		<g id="transformed-09173_42_" transform="translate(-121.5, -125) rotate(0, 121.5, 125)">
			<g id="original-09173_42_">
				<path d="M153.8,94.4l2.1,3.7l1-3.7l-1-3.7L153.8,94.4L153.8,94.4z M148.5,95l2.7,2.7l3.7,1l-2.1-3.7H148.5z M151.1,91.1
					l-2.7,2.7h4.3l2.1-3.7L151.1,91.1z M157.9,93.1l-0.7,1.3l0.7,1.3l-1.3,4.8l-4.9-1.3l-0.7-1.3l-1.5,0h0l-3.6-3.5l3.6-3.5l1.5,0
					l0.7-1.3l4.9-1.3L157.9,93.1L157.9,93.1z"/>
			</g>
		</g>
		<g id="transformed-09173_41_" transform="translate(-121.5, -125) rotate(0, 121.5, 125)">
			<g id="original-09173_41_">
				<path d="M129.3,106.6l2.1,3.7l1-3.7l-1-3.7L129.3,106.6L129.3,106.6z M124,107.2l2.7,2.7l3.7,1l-2.1-3.7H124z M126.6,103.3
					L124,106h4.3l2.1-3.7L126.6,103.3z M133.4,105.4l-0.7,1.3l0.7,1.3l-1.3,4.8l-4.9-1.3l-0.7-1.3l-1.5,0h0l-3.6-3.5l3.6-3.5l1.5,0
					l0.7-1.3l4.9-1.3L133.4,105.4L133.4,105.4z"/>
			</g>
		</g>
		<g id="transformed-09173_40_" transform="translate(-121.5, -125) rotate(0, 121.5, 125)">
			<g id="original-09173_40_">
				<path d="M141.5,106.6l2.1,3.7l1-3.7l-1-3.7L141.5,106.6L141.5,106.6z M136.2,107.2l2.7,2.7l3.7,1l-2.1-3.7H136.2z M138.9,103.3
					l-2.7,2.7h4.3l2.1-3.7L138.9,103.3z M145.7,105.4l-0.7,1.3l0.7,1.3l-1.3,4.8l-4.9-1.3l-0.7-1.3l-1.5,0h0l-3.6-3.5l3.6-3.5l1.5,0
					l0.7-1.3l4.9-1.3L145.7,105.4L145.7,105.4z"/>
			</g>
		</g>
		<g id="transformed-09173_39_" transform="translate(-121.5, -125) rotate(0, 121.5, 125)">
			<g id="original-09173_39_">
				<path d="M153.8,106.6l2.1,3.7l1-3.7l-1-3.7L153.8,106.6L153.8,106.6z M148.5,107.2l2.7,2.7l3.7,1l-2.1-3.7H148.5z M151.1,103.3
					l-2.7,2.7h4.3l2.1-3.7L151.1,103.3z M157.9,105.4l-0.7,1.3l0.7,1.3l-1.3,4.8l-4.9-1.3l-0.7-1.3l-1.5,0h0l-3.6-3.5l3.6-3.5l1.5,0
					l0.7-1.3l4.9-1.3L157.9,105.4L157.9,105.4z"/>
			</g>
		</g>
		<g id="transformed-09173_38_" transform="translate(-121.5, -125) rotate(0, 121.5, 125)">
			<g id="original-09173_38_">
				<path d="M129.3,118.9l2.1,3.7l1-3.7l-1-3.7L129.3,118.9L129.3,118.9z M124,119.5l2.7,2.7l3.7,1l-2.1-3.7H124z M126.6,115.6
					l-2.7,2.7h4.3l2.1-3.7L126.6,115.6z M133.4,117.6l-0.7,1.3l0.7,1.3l-1.3,4.8l-4.9-1.3l-0.7-1.3l-1.5,0h0l-3.6-3.5l3.6-3.5l1.5,0
					l0.7-1.3l4.9-1.3L133.4,117.6L133.4,117.6z"/>
			</g>
		</g>
		<g id="transformed-09173_37_" transform="translate(-121.5, -125) rotate(0, 121.5, 125)">
			<g id="original-09173_37_">
				<path d="M141.5,118.9l2.1,3.7l1-3.7l-1-3.7L141.5,118.9L141.5,118.9z M136.2,119.5l2.7,2.7l3.7,1l-2.1-3.7H136.2z M138.9,115.6
					l-2.7,2.7h4.3l2.1-3.7L138.9,115.6z M145.7,117.6l-0.7,1.3l0.7,1.3l-1.3,4.8l-4.9-1.3l-0.7-1.3l-1.5,0h0l-3.6-3.5l3.6-3.5l1.5,0
					l0.7-1.3l4.9-1.3L145.7,117.6L145.7,117.6z"/>
			</g>
		</g>
		<g id="transformed-09173_36_" transform="translate(-121.5, -125) rotate(0, 121.5, 125)">
			<g id="original-09173_36_">
				<path d="M153.8,118.9l2.1,3.7l1-3.7l-1-3.7L153.8,118.9L153.8,118.9z M148.5,119.5l2.7,2.7l3.7,1l-2.1-3.7H148.5z M151.1,115.6
					l-2.7,2.7h4.3l2.1-3.7L151.1,115.6z M157.9,117.6l-0.7,1.3l0.7,1.3l-1.3,4.8l-4.9-1.3l-0.7-1.3l-1.5,0h0l-3.6-3.5l3.6-3.5l1.5,0
					l0.7-1.3l4.9-1.3L157.9,117.6L157.9,117.6z"/>
			</g>
		</g>
	</g>
</pattern>
<rect x="-354" y="156" class="st1" width="252" height="250"/>
<desc>This image was made on Patterninja.com</desc>
<pattern  id="SVGID_1_" xlink:href="#Motivo_nuevo_2" patternTransform="matrix(1 0 0 1 -5.086263e-006 1.271565e-006)">
</pattern>
<rect x="-354" y="156" class="st2" width="250" height="250"/>
<rect x="-39.3" y="387.3" class="st1" width="0" height="1.3"/>
</svg>
